<svg width="24" height="24" viewBox="0 0 24 24" fill="none" xmlns="http://www.w3.org/2000/svg">
<path d="M7.50586 4.94507H16.0059C16.4037 4.94507 16.7852 5.1031 17.0665 5.38441C17.3478 5.66571 17.5059 6.04724 17.5059 6.44507V7.94507M15.0059 17.9451L14.1489 15.9451M14.1489 15.9451L12.5989 12.3281C12.5485 12.2131 12.4654 12.1155 12.3599 12.0474C12.2545 11.9793 12.1314 11.9437 12.0059 11.9451C11.8805 11.9439 11.7576 11.9796 11.6524 12.0477C11.5471 12.1158 11.4642 12.2133 11.4139 12.3281L9.86286 15.9451M14.1489 15.9451L12.0059 18.5L9.86286 15.9451M9.86286 15.9451L9.00586 17.9451" stroke="#477EEB" stroke-width="1.5" stroke-linecap="round" stroke-linejoin="round"/>
<path d="M18.4971 2H6.30707C5.81107 2 5.30207 2.073 4.90107 2.368C3.62707 3.303 2.64507 5.388 4.62807 7.271C5.18407 7.799 5.96207 7.991 6.72707 7.991H18.2841C19.0771 7.991 20.5001 8.104 20.5001 10.527V17.981C20.5001 20.201 18.7101 22 16.5031 22H7.47307C5.26907 22 3.66607 20.443 3.54007 18.071L3.50607 5.166" stroke="#477EEB" stroke-width="1.5" stroke-linecap="round" stroke-linejoin="round"/>
</svg>
